<svg width="18" height="18" viewBox="0 0 18 18" fill="none" xmlns="http://www.w3.org/2000/svg">
<path fill-rule="evenodd" clip-rule="evenodd" d="M6.49996 17.9582H11.5C16.025 17.9582 17.9583 16.0248 17.9583 11.4998V6.49984C17.9583 1.97484 16.025 0.0415039 11.5 0.0415039H6.49996C1.97496 0.0415039 0.041626 1.97484 0.041626 6.49984V11.4998C0.041626 16.0248 1.97496 17.9582 6.49996 17.9582ZM1.29163 6.49984C1.29163 2.65817 2.65829 1.2915 6.49996 1.2915H11.5C15.3416 1.2915 16.7083 2.65817 16.7083 6.49984V11.4998C16.7083 15.3415 15.3416 16.7082 11.5 16.7082H6.49996C2.65829 16.7082 1.29163 15.3415 1.29163 11.4998V6.49984ZM11.5 10.6582C11.625 10.7832 11.7833 10.8416 11.9416 10.8416C12.1 10.8416 12.2583 10.7832 12.3833 10.6582C12.625 10.4166 12.625 10.0166 12.3833 9.77489L9.44163 6.83323C9.19996 6.59156 8.79996 6.59156 8.5583 6.83323L5.61663 9.77489C5.37496 10.0166 5.37496 10.4166 5.61663 10.6582C5.8583 10.8999 6.2583 10.8999 6.49996 10.6582L8.99996 8.15823L11.5 10.6582Z" fill="#999FA6"/>
</svg>
