<svg width="16" height="16" viewBox="0 0 16 16" fill="none" xmlns="http://www.w3.org/2000/svg">
<path fill-rule="evenodd" clip-rule="evenodd" d="M0.833252 7.66683C0.833252 11.4335 3.89992 14.5002 7.66659 14.5002C11.4333 14.5002 14.4999 11.4335 14.4999 7.66683C14.4999 3.90016 11.4333 0.833496 7.66659 0.833496C3.89992 0.833496 0.833252 3.90016 0.833252 7.66683ZM1.83325 7.66683C1.83325 4.4535 4.44659 1.8335 7.66659 1.8335C10.8866 1.8335 13.4999 4.4535 13.4999 7.66683C13.4999 10.8802 10.8866 13.5002 7.66659 13.5002C4.44659 13.5002 1.83325 10.8802 1.83325 7.66683ZM14.3132 15.0201C14.4132 15.1201 14.5399 15.1667 14.6666 15.1667C14.7932 15.1667 14.9199 15.1201 15.0199 15.0201C15.2132 14.8268 15.2132 14.5068 15.0199 14.3134L13.6866 12.9801C13.4932 12.7867 13.1732 12.7867 12.9799 12.9801C12.7866 13.1734 12.7866 13.4934 12.9799 13.6868L14.3132 15.0201Z" fill="#999FA6"/>
</svg>
